<svg width="22" height="22" viewBox="0 0 22 22" fill="currentColor" xmlns="http://www.w3.org/2000/svg">
<g clip-path="url(#clip0_325_383)">
<path d="M10.2201 12.3898C10.2901 12.4598 10.3701 12.5098 10.4601 12.5498C10.5501 12.5898 10.6501 12.6098 10.7501 12.6098C10.8501 12.6098 10.9501 12.5898 11.0401 12.5498C11.1301 12.5098 11.2101 12.4598 11.2801 12.3898L13.8701 9.7998C14.1601 9.5098 14.1601 9.0298 13.8701 8.7398C13.5801 8.4498 13.1001 8.4498 12.8101 8.7398L11.5001 10.0498V6.2998C11.5001 5.8898 11.1601 5.5498 10.7501 5.5498C10.3401 5.5498 10.0001 5.8898 10.0001 6.2998V10.0498L8.6901 8.7398C8.4001 8.4498 7.9201 8.4498 7.6301 8.7398C7.3401 9.0298 7.3401 9.5098 7.6301 9.7998L10.2201 12.3898Z" fill="currentColor"/>
<path d="M15.2199 14.6599L14.7599 15.1199C14.4799 15.3999 14.1099 15.5499 13.7199 15.5499H7.77994C7.38994 15.5499 7.01994 15.3999 6.73994 15.1199L6.27994 14.6599C5.98994 14.3699 5.50994 14.3699 5.21994 14.6599C4.92994 14.9499 4.92994 15.4299 5.21994 15.7199L5.67994 16.1799C6.23994 16.7399 6.98994 17.0499 7.77994 17.0499H13.7199C14.5199 17.0499 15.2599 16.7399 15.8199 16.1799L16.2799 15.7199C16.5699 15.4299 16.5699 14.9499 16.2799 14.6599C15.9899 14.3699 15.5099 14.3699 15.2199 14.6599Z" fill="currentColor"/>
<path d="M15.19 0H6.3C2.83 0 0 2.83 0 6.31V15.2C0 18.68 2.83 21.51 6.3 21.51H15.19C18.67 21.51 21.5 18.68 21.5 15.2V6.31C21.5 2.83 18.67 0 15.19 0ZM20 15.19C20 17.84 17.84 20 15.19 20H6.3C3.65 20 1.5 17.84 1.5 15.19V6.31C1.5 3.66 3.66 1.5 6.3 1.5H15.19C17.84 1.5 20 3.66 20 6.31V15.2V15.19Z" fill="currentColor"/>
</g>
<defs>
<clipPath id="clip0_325_383">
<rect width="21.5" height="21.5" fill="currentColor"/>
</clipPath>
</defs>
</svg>
