<svg width="23" height="24" viewBox="0 0 23 24" fill="none" xmlns="http://www.w3.org/2000/svg">
<g clip-path="url(#clip0_225_412)">
<path d="M8.85 13.8896H5.38C2.41 13.8896 0 16.2996 0 19.2696V20.4296C0 20.8396 0.34 21.1796 0.75 21.1796C1.16 21.1796 1.5 20.8396 1.5 20.4296V19.2696C1.5 17.1296 3.24 15.3896 5.38 15.3896H8.85C9.26 15.3896 9.6 15.0496 9.6 14.6396C9.6 14.2296 9.26 13.8896 8.85 13.8896Z" fill="white"/>
<path d="M16.67 12.1602C13.54 12.1602 11 14.7002 11 17.8302C11 20.9602 13.54 23.5002 16.67 23.5002C19.8 23.5002 22.34 20.9602 22.34 17.8302C22.34 14.7002 19.8 12.1602 16.67 12.1602ZM16.67 22.0002C14.37 22.0002 12.5 20.1302 12.5 17.8302C12.5 15.5302 14.37 13.6602 16.67 13.6602C18.97 13.6602 20.84 15.5302 20.84 17.8302C20.84 20.1302 18.97 22.0002 16.67 22.0002Z" fill="white"/>
<path d="M18.06 17.0195C17.65 17.0195 17.25 17.4095 17.25 17.8295C17.25 18.2495 17.64 18.6395 18.06 18.6395C18.48 18.6395 18.87 18.2495 18.87 17.8295C18.87 17.4195 18.48 17.0195 18.06 17.0195Z" fill="white"/>
<path d="M15.17 17.0195C14.76 17.0195 14.36 17.4095 14.36 17.8295C14.36 18.2495 14.75 18.6395 15.17 18.6395C15.59 18.6395 15.97 18.2595 15.98 17.8595V17.8095C15.97 17.3995 15.58 17.0295 15.17 17.0295V17.0195Z" fill="white"/>
<path d="M15.39 5.38C15.39 2.41 12.98 0 10.01 0C7.04 0 4.63 2.41 4.63 5.38C4.63 8.35 7.04 10.76 10.01 10.76C12.98 10.76 15.39 8.35 15.39 5.38ZM10.01 9.26C7.87 9.26 6.13 7.52 6.13 5.38C6.13 3.24 7.87 1.5 10.01 1.5C12.15 1.5 13.89 3.24 13.89 5.38C13.89 7.52 12.15 9.26 10.01 9.26Z" fill="white"/>
</g>
<defs>
<clipPath id="clip0_225_412">
<rect width="22.34" height="23.5" fill="white"/>
</clipPath>
</defs>
</svg>
