<svg width="43" height="43" viewBox="0 0 43 43" fill="none" xmlns="http://www.w3.org/2000/svg">
<g clip-path="url(#clip0_238_457)">
<path d="M1.5 14.83V10.39C1.5 5.48 5.48 1.5 10.39 1.5H32.61C37.52 1.5 41.5 5.48 41.5 10.39V32.61C41.5 37.52 37.52 41.5 32.61 41.5H28.17" stroke="black" stroke-width="3" stroke-linecap="round" stroke-linejoin="round"/>
<path d="M25.94 17.0601L32.61 10.3901" stroke="black" stroke-width="3" stroke-linecap="round" stroke-linejoin="round"/>
<path d="M25.94 10.3901H32.61V17.0601" stroke="black" stroke-width="3" stroke-linecap="round" stroke-linejoin="round"/>
<path d="M14.62 34.6201H8.38" stroke="black" stroke-width="3" stroke-linecap="round" stroke-linejoin="round"/>
<path d="M14.62 28.3799H8.38" stroke="black" stroke-width="3" stroke-linecap="round" stroke-linejoin="round"/>
<path d="M16.5 21.5H6.5C3.73858 21.5 1.5 23.7386 1.5 26.5V36.5C1.5 39.2614 3.73858 41.5 6.5 41.5H16.5C19.2614 41.5 21.5 39.2614 21.5 36.5V26.5C21.5 23.7386 19.2614 21.5 16.5 21.5Z" stroke="black" stroke-width="3" stroke-linecap="round" stroke-linejoin="round"/>
</g>
<defs>
<clipPath id="clip0_238_457">
<rect width="43" height="43" fill="white"/>
</clipPath>
</defs>
</svg>
