<svg width="43" height="43" viewBox="0 0 43 43" fill="none" xmlns="http://www.w3.org/2000/svg">
<g clip-path="url(#clip0_238_451)">
<path d="M37.29 16.2398V12.0298C37.29 9.69982 35.4 7.81982 33.08 7.81982H12.03" stroke="black" stroke-width="3" stroke-linecap="round" stroke-linejoin="round"/>
<path d="M30.55 39.4501L40.26 29.7401C41.9 28.1001 41.9 25.4301 40.26 23.7901C38.62 22.1501 35.95 22.1501 34.31 23.7901L24.6 33.5001C23.79 34.3101 23.27 35.3501 23.11 36.4801L22.56 40.3001C22.48 40.8801 22.88 41.4101 23.45 41.4901C23.55 41.5001 23.65 41.5001 23.75 41.4901L27.57 40.9401C28.7 40.7801 29.74 40.2601 30.55 39.4501Z" stroke="black" stroke-width="3" stroke-linecap="round" stroke-linejoin="round"/>
<path d="M37.73 32.2798L31.77 26.3198" stroke="black" stroke-width="3" stroke-linecap="round" stroke-linejoin="round"/>
<path d="M16.24 41.5H6.76C3.85 41.5 1.5 39.14 1.5 36.24C1.5 33.33 3.86 30.98 6.76 30.98H9.92C11.08 30.98 12.03 30.04 12.03 28.87V3.61C12.03 2.45 11.09 1.5 9.92 1.5H6.76C3.86 1.5 1.5 3.86 1.5 6.76V36.23" stroke="black" stroke-width="3" stroke-linecap="round" stroke-linejoin="round"/>
</g>
<defs>
<clipPath id="clip0_238_451">
<rect width="43" height="43" fill="white"/>
</clipPath>
</defs>
</svg>
