<svg viewBox="0 0 20 20" fill="none" xmlns="http://www.w3.org/2000/svg">
<g clip-path="url(#clip0_236_751)">
<path d="M5.75 14H13.75" stroke="currentColor" stroke-width="1.5" stroke-linecap="round" stroke-linejoin="round"/>
<path d="M9.53 6.2898L10.46 7.2198C10.85 7.6098 10.85 8.2398 10.46 8.6298L8.39 10.6998C8.2 10.8898 7.95 10.9898 7.68 10.9898H6C5.86 10.9898 5.75 10.8798 5.75 10.7398V9.0598C5.75 8.7898 5.86 8.5398 6.04 8.3498L8.11 6.2798C8.5 5.8898 9.13 5.8898 9.52 6.2798L9.53 6.2898Z" stroke="currentColor" stroke-width="1.5" stroke-linecap="round" stroke-linejoin="round"/>
<path d="M13.75 1H5.75C2.98858 1 0.75 3.23858 0.75 6V14C0.75 16.7614 2.98858 19 5.75 19H13.75C16.5114 19 18.75 16.7614 18.75 14V6C18.75 3.23858 16.5114 1 13.75 1Z" stroke="currentColor" stroke-width="1.5" stroke-linecap="round" stroke-linejoin="round"/>
</g>
<defs>
<clipPath id="clip0_236_751">
<rect width="19.5" height="19.5" fill="currentColor" transform="translate(0 0.25)"/>
</clipPath>
</defs>
</svg>
