<svg width="18" height="21" viewBox="0 0 18 21" fill="currentColor" xmlns="http://www.w3.org/2000/svg">
<g clip-path="url(#clip0_236_1275)">
<path d="M3.89 13.03C5.4861 13.03 6.78 11.7361 6.78 10.14C6.78 8.5439 5.4861 7.25 3.89 7.25C2.2939 7.25 1 8.5439 1 10.14C1 11.7361 2.2939 13.03 3.89 13.03Z" stroke="currentColor" stroke-width="2" stroke-linecap="round" stroke-linejoin="round"/>
<path d="M14.11 6.78C15.7061 6.78 17 5.4861 17 3.89C17 2.2939 15.7061 1 14.11 1C12.5139 1 11.22 2.2939 11.22 3.89C11.22 5.4861 12.5139 6.78 14.11 6.78Z" stroke="currentColor" stroke-width="2" stroke-linecap="round" stroke-linejoin="round"/>
<path d="M14.11 19.2898C15.7061 19.2898 17 17.9959 17 16.3998C17 14.8037 15.7061 13.5098 14.11 13.5098C12.5139 13.5098 11.22 14.8037 11.22 16.3998C11.22 17.9959 12.5139 19.2898 14.11 19.2898Z" stroke="currentColor" stroke-width="2" stroke-linecap="round" stroke-linejoin="round"/>
<path d="M6.35001 8.60988L11.65 5.37988" stroke="currentColor" stroke-width="2" stroke-linecap="round" stroke-linejoin="round"/>
<path d="M6.35001 11.6699L11.63 14.9099" stroke="currentColor" stroke-width="2" stroke-linecap="round" stroke-linejoin="round"/>
</g>
<defs>
<clipPath id="clip0_236_1275">
<rect width="18" height="20.29" fill="currentColor"/>
</clipPath>
</defs>
</svg>
