<svg width="19" height="14" viewBox="0 0 19 14" fill="none" xmlns="http://www.w3.org/2000/svg">
<g clip-path="url(#clip0_225_421)">
<path d="M2.81 1.80002C2.29 2.32002 2 3.01002 2 3.74002C2 4.47002 2.29 5.17002 2.81 5.68002C3.33 6.20002 4.02 6.49002 4.75 6.49002C5.48 6.49002 6.18 6.20002 6.69 5.68002C7.21 5.16002 7.5 4.47002 7.5 3.74002C7.5 3.01002 7.21 2.32002 6.69 1.80002C5.65 0.76002 3.84 0.76002 2.8 1.80002H2.81ZM5.63 4.63002C5.16 5.10002 4.34 5.10002 3.86 4.63002C3.62 4.39002 3.49 4.08002 3.49 3.75002C3.49 3.42002 3.62 3.10002 3.86 2.87002C4.1 2.64002 4.41 2.50002 4.74 2.50002C5.07 2.50002 5.39 2.63002 5.62 2.87002C5.85 3.11002 5.99 3.42002 5.99 3.75002C5.99 4.08002 5.86 4.40002 5.62 4.63002H5.63Z" fill="black"/>
<path d="M13.25 6.50006C14.08 6.50006 14.91 6.18006 15.55 5.55006C16.16 4.94006 16.5 4.12006 16.5 3.25006C16.5 2.38006 16.16 1.57006 15.55 0.950059C14.28 -0.319941 12.22 -0.319941 10.95 0.950059C10.34 1.56006 10 2.38006 10 3.25006C10 4.12006 10.34 4.93006 10.95 5.55006C11.58 6.18006 12.42 6.50006 13.25 6.50006ZM12.01 2.01006C12.35 1.67006 12.8 1.50006 13.25 1.50006C13.7 1.50006 14.15 1.67006 14.49 2.01006C14.82 2.34006 15 2.78006 15 3.25006C15 3.72006 14.82 4.16006 14.49 4.49006C13.81 5.17006 12.7 5.17006 12.02 4.49006C11.69 4.16006 11.51 3.72006 11.51 3.25006C11.51 2.78006 11.69 2.34006 12.02 2.01006H12.01Z" fill="black"/>
<path d="M14.75 8H11.75C9.68 8 8 9.68 8 11.75V12.75C8 13.16 8.34 13.5 8.75 13.5C9.16 13.5 9.5 13.16 9.5 12.75V11.75C9.5 10.51 10.51 9.5 11.75 9.5H14.75C15.99 9.5 17 10.51 17 11.75V12.75C17 13.16 17.34 13.5 17.75 13.5C18.16 13.5 18.5 13.16 18.5 12.75V11.75C18.5 9.68 16.82 8 14.75 8Z" fill="black"/>
<path d="M5.75 8H3.75C1.68 8 0 9.68 0 11.75V12.75C0 13.16 0.34 13.5 0.75 13.5C1.16 13.5 1.5 13.16 1.5 12.75V11.75C1.5 10.51 2.51 9.5 3.75 9.5H5.75C6.16 9.5 6.5 9.16 6.5 8.75C6.5 8.34 6.16 8 5.75 8Z" fill="black"/>
</g>
<defs>
<clipPath id="clip0_225_421">
<rect width="18.5" height="13.5" fill="white"/>
</clipPath>
</defs>
</svg>
