<?xml version="1.0" encoding="UTF-8"?><svg id="_레이어_2" xmlns="http://www.w3.org/2000/svg" viewBox="0 0 593.99 113.39"><defs><style>.cls-1{fill:#0033c3;}.cls-2{fill:#0654ff;}</style></defs><g id="_레이어_1-2"><path class="cls-2" d="M162.74,0h-81.79c-4.25,0-8.33,1.69-11.34,4.69L15.34,58.78c-2.03,2.02-.6,5.49,2.27,5.49h27.12l10.5-10.46c3.01-3,7.08-4.68,11.33-4.69l3.43-3.43,23.15-23.14,10.28,10.31-16.26,16.26h6.82l12.85-12.85,10.28,10.32-2.53,2.53h6.82L165.01,5.49c2.02-2.02.59-5.49-2.27-5.49ZM96.53,19.14l2.27-2.27c5.02-5.02,13.16-5.02,18.18,0l5.82,5.82c5.02,5.02,5.02,13.16,0,18.18l-2.27,2.27-24-24Z"/><path class="cls-1" d="M74.25,89.43l-10.3-10.3,30.01-30.01h-6.82l-26.6,26.6-10.3-10.3,16.3-16.31c-4.25,0-8.32,1.69-11.33,4.69L.95,107.9c-2.03,2.02-.6,5.49,2.27,5.49h81.97c4.26,0,8.35-1.69,11.36-4.71l54.08-54.08c2.02-2.02.59-5.49-2.27-5.49h-33.79l-40.31,40.31ZM59.52,97.51h-17.37s0-17.33,0-17.33c0-4.25,1.69-8.33,4.69-11.34l24,24c-3.01,2.99-7.08,4.67-11.32,4.67Z"/><path class="cls-2" d="M223.8,93.54c-10.5,0-18.99-3.33-25.46-10.01-6.47-6.67-9.71-15.62-9.71-26.85s3.17-20.34,9.51-26.94c6.34-6.6,14.89-9.91,25.66-9.91,8.72,0,16.11,2.31,22.19,6.93,6.21,4.69,9.94,11.33,11.19,19.91h-16.94c-1.06-3.96-3.02-7.02-5.89-9.16-2.87-2.15-6.39-3.22-10.55-3.22-5.68,0-10.05,1.95-13.13,5.84-3.07,3.9-4.61,9.41-4.61,16.54s1.54,12.65,4.61,16.54c3.07,3.9,7.44,5.84,13.13,5.84,4.36,0,8.06-1.25,11.09-3.76,3.04-2.51,4.95-6.01,5.75-10.5h16.74c-1.06,9.11-4.66,16.18-10.8,21.2-6.21,5.02-13.8,7.53-22.78,7.53Z"/><path class="cls-2" d="M313.35,91.96h-15.55c-.79-1.52-1.22-3.43-1.29-5.75-3.43,4.62-8.88,6.94-16.34,6.94-5.61,0-10.12-1.39-13.52-4.16-3.4-2.77-5.1-6.6-5.1-11.49,0-9.51,6.67-14.82,20.01-15.95l8.02-.69c4.42-.46,6.64-2.15,6.64-5.05,0-3.43-2.61-5.15-7.83-5.15-3.17,0-5.4.48-6.69,1.44-1.29.96-2.06,2.72-2.33,5.3h-15.35c.92-11.82,9.08-17.73,24.47-17.73s22.78,5.25,22.78,15.75v27.14c0,4.29.69,7.43,2.08,9.41ZM284.82,82.75c3.5,0,6.27-.91,8.32-2.72,2.05-1.82,3.07-4.54,3.07-8.17v-3.76c-.93.99-2.64,1.65-5.15,1.98l-6.34.69c-4.95.53-7.43,2.58-7.43,6.14,0,1.78.66,3.2,1.98,4.26,1.32,1.06,3.17,1.59,5.55,1.59Z"/><path class="cls-2" d="M347.73,40.84v11.29h-9.81v23.87c0,1.72.43,2.89,1.29,3.52.86.63,2.38.94,4.56.94h3.96v11.49c-1.85.26-4.23.4-7.13.4-6.41,0-11.03-1.14-13.87-3.42-2.84-2.28-4.26-6.03-4.26-11.24v-25.56h-7.63v-11.29h7.63v-15.16h15.45v15.16h9.81Z"/><path class="cls-2" d="M377.45,93.15c-7.99,0-14.36-2.44-19.12-7.33-4.75-4.89-7.13-11.36-7.13-19.42s2.38-14.69,7.13-19.52c4.76-4.82,11.13-7.23,19.12-7.23,7,0,12.73,1.83,17.19,5.5,4.46,3.67,7.05,8.64,7.78,14.91h-15.35c-.86-5.22-4.06-7.82-9.61-7.82-7.07,0-10.6,4.72-10.6,14.17s3.53,14.07,10.6,14.07c5.94,0,9.25-2.87,9.91-8.62h15.35c-.46,6.47-3.01,11.66-7.63,15.55-4.62,3.83-10.5,5.75-17.63,5.75Z"/><path class="cls-2" d="M439.66,39.65c5.41,0,9.72,1.63,12.93,4.9,3.2,3.27,4.8,7.91,4.8,13.92v33.48h-15.45v-30.41c0-5.81-2.74-8.72-8.22-8.72-2.77,0-5.09.93-6.93,2.77s-2.77,4.46-2.77,7.83v28.53h-15.45V21.43h15.45v26.15c3.9-5.28,9.11-7.92,15.65-7.92Z"/><path class="cls-1" d="M496.81,93.54c-9.18,0-16.58-2.48-22.19-7.43-5.61-4.82-8.42-11.82-8.42-21V21.43h16.74v43.88c0,4.49,1.2,7.91,3.62,10.25,2.41,2.35,5.83,3.52,10.25,3.52s7.86-1.17,10.3-3.52c2.44-2.34,3.67-5.76,3.67-10.25V21.43h16.74v43.69c0,9.05-2.72,16.05-8.17,21-5.45,4.95-12.96,7.43-22.54,7.43Z"/><path class="cls-1" d="M535.84,21.43h32.1c8.12,0,14.5,2.13,19.12,6.39,4.62,4.26,6.93,10.05,6.93,17.38s-2.31,13.13-6.93,17.38c-4.62,4.26-11,6.39-19.12,6.39h-15.35v22.98h-16.74V21.43ZM552.58,54.81h14.27c3.3,0,5.86-.82,7.68-2.48,1.82-1.65,2.72-4.03,2.72-7.13s-.93-5.48-2.77-7.13c-1.85-1.65-4.39-2.48-7.63-2.48h-14.27v19.22Z"/></g></svg>