<svg xmlns="http://www.w3.org/2000/svg" id="_레이어_2" viewBox="0 0 166 166">
    <defs>
        <style>
            .cls-1{fill:#0033c3;}
            .cls-2{fill:#0654ff;}
        </style>
    </defs>
    <g id="_레이어_1-2">
        <path class="cls-2" d="M162.74,26h-81.79c-4.25,0-8.33,1.69-11.34,4.69L15.34,84.78c-2.03,2.02-.6,5.49,2.27,5.49h27.12l10.5-10.46c3.01-3,7.08-4.68,11.33-4.69l3.43-3.43,23.15-23.14,10.28,10.31-16.26,16.26h6.82l12.85-12.85,10.28,10.32-2.53,2.53h6.82L165.01,31.49c2.02-2.02.59-5.49-2.27-5.49ZM96.53,45.14l2.27-2.27c5.02-5.02,13.16-5.02,18.18,0l5.82,5.82c5.02,5.02,5.02,13.16,0,18.18l-2.27,2.27-24-24Z"/>
        <path class="cls-1" d="M74.25,115.43l-10.3-10.3,30.01-30.01h-6.82l-26.6,26.6-10.3-10.3,16.3-16.31c-4.25,0-8.32,1.69-11.33,4.69L.95,133.9c-2.03,2.02-.6,5.49,2.27,5.49h81.97c4.26,0,8.35-1.69,11.36-4.71l54.08-54.08c2.02-2.02.59-5.49-2.27-5.49h-33.79l-40.31,40.31ZM59.52,123.51h-17.37s0-17.33,0-17.33c0-4.25,1.69-8.33,4.69-11.34l24,24c-3.01,2.99-7.08,4.67-11.32,4.67Z"/>
    </g>
</svg>
